<mxfile host="app.diagrams.net" agent="Mozilla/5.0 (Windows NT 10.0; Win64; x64) AppleWebKit/537.36 (KHTML, like Gecko) Chrome/135.0.0.0 Safari/537.36" version="26.2.6">
  <diagram name="第 1 页" id="Cf5mD9mvzOXzHa2ch4Rv">
    <mxGraphModel dx="1426" dy="761" grid="1" gridSize="10" guides="1" tooltips="1" connect="1" arrows="1" fold="1" page="1" pageScale="1" pageWidth="827" pageHeight="1169" math="0" shadow="0">
      <root>
        <mxCell id="0" />
        <mxCell id="1" parent="0" />
        <mxCell id="FZN5IPEvAI4Ji5P53bTX-81" value="DQN agent" style="text;html=1;align=center;verticalAlign=middle;resizable=0;points=[];autosize=1;strokeColor=none;fillColor=none;fontFamily=Times New Roman;" vertex="1" parent="1">
          <mxGeometry x="350" y="425" width="80" height="30" as="geometry" />
        </mxCell>
        <mxCell id="FZN5IPEvAI4Ji5P53bTX-83" value="Neighborhoods" style="text;html=1;align=center;verticalAlign=middle;resizable=0;points=[];autosize=1;strokeColor=none;fillColor=none;fontFamily=Times New Roman;" vertex="1" parent="1">
          <mxGeometry x="538" y="425" width="100" height="30" as="geometry" />
        </mxCell>
        <mxCell id="FZN5IPEvAI4Ji5P53bTX-84" value="Experience playback buffer" style="text;html=1;align=center;verticalAlign=middle;resizable=0;points=[];autosize=1;strokeColor=none;fillColor=none;horizontal=1;fontFamily=Times New Roman;" vertex="1" parent="1">
          <mxGeometry x="140" y="583" width="160" height="30" as="geometry" />
        </mxCell>
        <mxCell id="FZN5IPEvAI4Ji5P53bTX-99" value="" style="shape=image;verticalLabelPosition=bottom;labelBackgroundColor=default;verticalAlign=top;aspect=fixed;imageAspect=0;image=data:image/png,iVBORw0KGgoAAAANSUhEUgAAAMgAAADICAYAAACtWK6eAAAAAXNSR0IArs4c6QAAEy9JREFUeF7tnWFu27gSgCk1Pcdzfy7y3hmaANsCe4rUJ0lyEieneEBTIO4ZtsH7Gfcc60jPlCxZdmSJw5khh9IEWLTbkBQ5nE8zHI7IzAj4Wf33fwtzUdzUXSmv6j+z+s/SbOr/LTcmyzamMD/NW75e/vVH/e/6oxJglEDG2PZg0wcoLBB7GCCdseBk5sFs80eFBSI4LQuRQHBAOtbiDtLRs2UVFBIxaiP9EggKyOrp5XbXDRowTsezB2X55fJeJ1slQCWBIIDUVuNt5eVKQUdqQXnLr9XtggpOy/dJgB2Q1dPfV8bkz0HFXy/s75dfLx+CPlcfNjkJsAISBY5mitTlmpyyxhgQGyBR4TiCpFguv/xnHUO4+sz0JcACyD5S9SpCPLomETENqXaCB5CnX89BFuSuUi/NZvn18pNrcS2nEmgkQA7I6sfLarf7/U2ciDPzsPzzcimuX9oh0RIgBUSUa9W7T6LrEdHaKLBztIBItR4He6lWRKASSu4SGSAiolZOki6uNarlJCgtZHNkqaQgdu1xOkBdi1BN+SzaoQPk+8vrLrt2IV5qGtESP0WSOkgCSDruVSN6dbMkKaHkvhABwpilyyO9O8365RHs1FolAkTYxuDoLJXr5Zd/X48W0wKzlwANIKmsP5rp1nXI7BXfVQAKiKuktNwsJUADyNNLmZr0dmsQkrGnNm7tL0wCaCURnV4yJItt/km/OoQpyxxLKyBznHUds7ME0IDYJ+0OY1AXy1nkWjAlCdAAkloUyxija5CU1DReX2kAkfaB1Kg8dR9kVERaoJIAESCJ7aRrwqKqv6MEiACJcLSP4wB7i5VmqUcCYQQ4n7o0gNSHT8s4pMFl7uyZvoX5qZC4CGveZUgAqSNZqeVj7U+Oz81aYZk3BEOjJwQkMTfrVCr2eCCFRUk5kQAZIMlakT6VUFgUlL0EiAFJ3IooLAoGpwWZlBVRWBQWqn2QriSTTV6EqoO6YVCJJVme1MVqJLD6/vLNZGaVpER8Oq2w+EgtiTosgNSuVmK761TTpbBQSVJEO2yAzBqSZmoVFhFKjukEKyBJQGJ31asbqTxv23WVvsLiKilR5dgBqSAJvya5q06Ydz/IrjoGCH01tevUKiyukopeLgggFSQhLvLsXJbjEU07OitLYYmumyI6EAyQowiXMbeAt/u4oM7cRwiCZODiT4VlfAqmWiI4IAdrUtyg/X6HizpB7l3V3vAdIsFhKYvHKZ9GX8tzuzBlvjBZsTHbi42kwzSiANJ921QC+lBcmay8MWW2GLQslQKXm931bmuzzR9dBUkNSWsN6zR/POhjr99mzZI4LPvQv02jvnKaawHJo9EB6dON9q3S/JLgrQLal/G4+FMtSz/lB7mYu7H3wNnfNy/GMnsM/Q2PSEC8BTlSkRuSd5YFFkmDD1uwZSEBo08iDm4wXJDna8wKEPC+jIclORV1qygzggXk0vpqs92/+ie/d3Wz/R/jWzPhelBLQnWF9BxgCXrTGMELbEyNZ2dBjqNojn4xw2nwU4QlymfXDpHMMQiGfj9LQA6QvK12EbErJwEyHhWUOixBNoHHJ4nlUqTZAiINkpQX+CsJJ2syLd5nDUgLyYfiGbCzz/KmOh/utvssjq7g+Fu2vwQiGhbFrTo3ToY1yewBkQ7JwdJtFybLb6okTM4fACwiL28lXi8qIHtl2+/oi7QkXR7aTVQBsIg91Z/w5EwFpKN9oOTGul4wd+u8CxbHsohyrU6FQ2hFFJAT4YIgYQ4xQjyp4JbF/VsbyDDoyhJFHRWQnikB7QQzRU8wmhIUFkxHOesSWREF5MwkpQ7Jcdg4kBvGqfBebRfX2E8FFJABwUNTUsxbfs2dG+SlJ8eBiCuTm8/s0TBMR8nq4i9KUkBGJmNqkBxZFvsdzpRhIXCzFBCHt9VUIZkHLDg3SwFxAMQWgUJClQHs2D2yYu0XntOxLKhQvALiqFrgD4AIzLtj19iKTQQWBYRNQ3r3SGRkAIca85Eb9rG4TW5xj9wPUQsC1DRwajdygoDdYy0OcjNZewJpHBfJUkAgsj4Ol4rP2/IY2mAVBYRaohNuL5XkRsopAG2eUj4Y0xbSgqsFQQh/bpAoIAhlmWtVUHJjLSRUVCWGnPfffXy2fY/xfOQzUfJWC4KUvq0OgkRQBvDQ0BOH4jA05LchCggBIBUkT4AbfgVmAHfGkKql6J/Jbf4Jkx+ngBABUikY5B4UIZBMxlL0zSPBZq0CQgiIFyQRMoAnDUV3PpERLNuUAkIMSO2qAC4wZTiJo29I4FQZBrkEbxLpXikgjDMmAZJZQtHOKW4HvWlGLcjEIJk3FN3JxKW5KyCMYDRNg5XVc1EJfo7v2Pchant5kYEdtuf7RM96NNZDXSxP8UOqVcoLyYJ1hCQGFE24VPSRP9Xk0FgPcYAc31dn/nVwJ83v6u9ZscF+hA9RbqqyVBnAMaForeLTr2fnA7+pBAhrB7VzfvqoqGuQzoTbfrmlMXTuGDdv+RqzCQSTO660LyQSoGjh+PGykv09CJ1rFXUNAnY7zukm4BxZnHrT1PZIbqR58JD87E1NDheigqJyvL0+0zo9HMFdLNa3YaArubBzHx2SZqFtip+u7iooQwArIJ/6jus2n6aDuVhBhJxKImB99TXkgyufuT3U8YDisOYA5JjheulZm8dyBHWxgt5bV9vFh+Wfl0tPibNWY7Wi3Z4joPCHo7iu6pb5CnDfCkbepAvyvo6wWhDwwhQjqtO6gVI4XLqcEhQYOBqXjX28ARM9eQGJHRJk9E3HwGBXkqYDBJbidCyg1P2qcv++A1kwpjtWY+6XXy8fxuRP9Xs2QMRsJgWEJGUoWsth10cXxau7go1vyh3kUl6B91AYXgDuY2PK5hUXEmRckwSD4nR9wZAmD/oyslprmCX0bb6P4u3PBC4X9Zolq/+0P1m52UG0rv/HPdIGUXpIWXILAjfPkO5iyo6/6Vxbb6Gw9wXGukiGeI3lEX5mXyC7zgdnOXpAJFwJ3CcxpKsVDIrapTi8UYdmnwgScDCF0SJzKrtP26SABNnr8Blla75h4d/AUDw0LgXIRUWCb0UDWy/y7jtgppejLjUgr85vP47RjLXpoEyxoOh2HbyucRjXOdEoHMNKQwaIeOvRyKFnYSkBitNpCuH2KBxjb1TCKBZM2OMdYyuxf9tKhCIkJLD5mpdb1Z0HOgvy9FKyKTV1w5CFsM+zm9h9aX5Dw6C9kMDytkajS6DUH4T75iM6aXVIAEnGveKUPiEUnJAoHDAloAFE/Ic0MKE4l2aEggMSaHRM+q29zvOEKEgDiNS9D4RgzlYNCEX/msQxDeQk9R9k5QMmA3JMEWWbCoiLNCNCgYbEmHv7Lb8x+bPLUOsydFkH7s+UWZIGkJQW6KB5KNemzB6xC23QIx0Kg9J5wAEJhYM8irXzbdOJYI0qYLm2yXLLL5f3o0UjFgC5TM79VDhORYW2IOAMUOfJClkwDSjeuVuQM4BHxalw9IkIDYhtNE0LkiYUPJAoHOfeHzSAJBjF2rlQJGMffTEHKAAK3572x+ObjgBDEvMIEiWBpS0IGPsEd4c9IRnddRcwW1G7ME9AJvg9QxXZAp4mMiUrykURDSCQq8e4RgJpN7ETGV2G5mXFJ/iicJEVpAwNIOAP/SFdZC47AVi84GjEqpAMKhgJIHUkS/yp3+OkJQgLkdx1LXJGOwgBAdzLN66q8UskAAsRHI2sFZIeraMDJGU3awxHgbAQw6GQcFuQys1KbbE+Bkbf7yMfZFbJGfJ5ATgXy6gl6cw7mQWpJi70qeU+Ck5ZJwIsoP2O/bFA1ZBdT0tM5IR8ymkcaosUkNlYkUiWBWShT77pgGcAF0vX+0NCKWuM55ADUke0pC3Yy7XZfliai+3CZPkN+zViDJYFpOCVJr3Pr8IAFkM5JTyTB5Bqwf62Ah9UzCKR9ydy1BnI6cBCAUcjWjAkDGcAs0wzU6MsgIhZjzjkXEmHhRKOFhKIhSc63pRJf9mbZQMkOiQe31VLg4UDDoUExhQrIC0kH4tbdr//aNz4g86Oj+k332BiBZbuWbOAP0TzSFsHrRUdrDFw1EkUZwekheSiuNn93e0udJzoyOP4cWAByMoDDq95mSEkQQBpzTrn4t3DpfLhMCgsLh1EJhuCzwA2eOvsMiwpZYICchRJMeaW5CR4C0bge+uOgP9Q7G9LYnbD+jQGCYf3i4vouVIgGOpHFECOJ8a6XsC76xqffZs/Lv/6wwIS/Se4ZSGOLoGzIGYCSVRAulrdKpj9x9x8rn5XlguTZZvdAt/+97s6AG17sZECxTkqg8JC+LIAQ2LweVvVM+2P3ZcSOLdiAIluApg6kBosnJA433Zbu832Rbk2ZfEYM+VFAWECo6/ZVGChhAR8W1af4CJ+bqCABASkx6V8JglUjI3Bww0D7cP0ZACTgHEmMGH+ye9DudkKyJhyMf0e9E0HZR8AsMAhqTOA4RkAwAEGTMlXQIBzQ1EctINN8cBzbTjAAk5utM9yvcYaOzbiSF6/wcJ2UuuDJABSuLrlO3AYHNQjGy20d7OXm3Mn2Xv0GdoD//LMkKgF8Z8acE2463H4pqNd4GflDetnBGdgEWP1zi3iM54PvBQQsJr7VcDAcfrEWLCIh4Th2xUFxE/fQbUo4RAAyyLYGgMk5dpVXH69/AStNlReAaGUZk9bnHBEg4VZZrjmaZMpFRDcbAzWBoVJbUueaet9nQjmhjHKz7tpQjkqIN6zMFwxJhyztyyErpYCwgAI+BuLgJmxs7EsRFZEASEGRDIcs7IsRFZEAaEGBHTKPe2CEjOUaVoW/N2LCghGq07qwg6UlgPHZC0LgeuqgBABMhU4JgULgZulgBAAMlU4emFxPQSbQK40TeDcLAUEOQugtHWCNxqyu+jqu3STEt1IyAaQ0SwFBDFZ84Pj7ytj8meEyGJURZ2TpoB4ThkoBTzQmV2eQ3GuBhqzc6vMBZELdQXEY37gioLzgz26yFIFPm6WbgAbxUULFRCguEMmHwK7xlac7ftyth53G1ZAgojZPmROcKQNRUcl1MUKw8cc4JgMFF2VUED4AZkyHC0Upfkm9kMo3BRrFAsnv+HaktLWqcY5AygOotJ9ECq1ed/OlOCYFRTdqdzmnzCHzGkU6wxfKaWtn3tFzBaKjkCWXy5ROo6qzPXuPjrx2xgT4/BiUH4VciFIKUeFgi6CZVuKDgjoxG97uJm9DqEwP81bvsaYziGlBMEh4MalYFC0dykCroejpB/cFn6DNhog9RlLwItzjvZ/zIbjePxU4AgORWl+L79ePtT7QXbuhENClBgaHJAqZFrmK9KQItFhxtLhiAlF990EDl6A3/wUFfDWI6iL5XHnBFxKiHNapcIhBYrTyZBtRXDpJcf7jHA1BNeAb7SBH9GNe4Mv9ZSWti4VindW5EMR5n4TsDrQWI8gFiTKmwbgckmBIxgU9aw/2EBHs6YA69++QtAXn2sniSOKrGsQmNviKgFQucE0A1D6NsM3Hc4RPNCQzxUu17tT4de7fYF7kuZaSCQt2Olcq0ZGbIBEsRz9M98LCQiOql0asz0FKESuR4iiVqdjYwFElOntefPD+4eDY4pQvFuPfCxud6erf6O0Ts5tMVh3NgsiMgTYiW6FgmPqULyzIva+84viZvfvd86KTVKQ3q1ijWIJWHecEbv1wct72KEDMMsxNyj6BB3UtSZekPeNh9TFgr+dSV4hTI24wREUCkB0jkkoTs2CEz2dWu0UCigHYkB+PbPenwcVpG/5kW8IFAo3wVaBEGNuybImAoJBvgaBR4XchByhVH/Uq/WxEfljroOJoAiuXfMpV3kWWX7jvYiPKA8yCwLacPORcog6Jz6tWgpaodfy3C5268DPVaJqmR3fd2hBsD9N1rYN3RLv20BHRAdIakdSnkpqD4dCAVWhaZcnASR596r9zkHdp2mrO3x0NID8eFl5+5fwPqdXI6IPnZ6wZPWYBhDQrUqyBMDWG4WCTbQhG6YB5PvLK1koL+ToqZ+lUFBLNHp7NICkvkDHTINCgZGe+LoKiM8UKRQ+UkuyDhoQkcmJHFPRRLq2+SPXaSoc3dY2cRJQQIbkp1DgtGsCtdGAWBmsprRIVygmoNZ0Q6ABJPUwr0JBp1ETa2m+gCgUE1NlnuEQASLpw30HQQX40MahF1okAQnQAFKngr8mMN59F90+hkpnPNpTLgmQAFIt1BNah2CPxOeaDG1XngQIAUnEzVL3Sp4WCu4RHSDJuFnqXgnWR3FdIwOkcrOkp72r9RCngNI7RAuIeCui1kO6QkrrHykgoq2IWg9pupdEf+gBqazI20rW8T+8p+8lMdPaSS8JkANSWRELiai7I9S18tIOrcR3iaecNHiFQ/XcXwIsFqTpTvzTThQOf9XQmlYCrIDEdbcUDlVxvATYAQkOCeIiT7w4tYWpSSAIIC0k/PdHDF65NrXJ0/HwSyAYIO26hOeilTuj34rza8sMnxAckPegeB73qSeLzFBdww85GiDdoe73Ta5Mbj6bslxUv2tO/hZ44nf4adInxpLA/wHP+BuMtS9MmgAAAABJRU5ErkJggg==;fontFamily=Times New Roman;" vertex="1" parent="1">
          <mxGeometry x="350" y="339.38" width="86.25" height="86.25" as="geometry" />
        </mxCell>
        <mxCell id="FZN5IPEvAI4Ji5P53bTX-103" value="Calculate rewards" style="text;html=1;align=center;verticalAlign=middle;resizable=0;points=[];autosize=1;strokeColor=none;fillColor=none;horizontal=1;fontFamily=Times New Roman;" vertex="1" parent="1">
          <mxGeometry x="334.28" y="580" width="110" height="30" as="geometry" />
        </mxCell>
        <mxCell id="FZN5IPEvAI4Ji5P53bTX-104" value="" style="shape=flexArrow;endArrow=classic;html=1;rounded=0;fontFamily=Times New Roman;" edge="1" parent="1">
          <mxGeometry width="50" height="50" relative="1" as="geometry">
            <mxPoint x="450" y="382.27" as="sourcePoint" />
            <mxPoint x="520" y="382.27" as="targetPoint" />
          </mxGeometry>
        </mxCell>
        <mxCell id="FZN5IPEvAI4Ji5P53bTX-105" value="" style="shape=flexArrow;endArrow=classic;html=1;rounded=0;fontFamily=Times New Roman;" edge="1" parent="1">
          <mxGeometry width="50" height="50" relative="1" as="geometry">
            <mxPoint x="264.28" y="382.2600000000001" as="sourcePoint" />
            <mxPoint x="334.28" y="382.2600000000001" as="targetPoint" />
          </mxGeometry>
        </mxCell>
        <mxCell id="FZN5IPEvAI4Ji5P53bTX-107" value="N1" style="whiteSpace=wrap;html=1;aspect=fixed;fontFamily=Times New Roman;" vertex="1" parent="1">
          <mxGeometry x="552.5" y="530" width="30" height="30" as="geometry" />
        </mxCell>
        <mxCell id="FZN5IPEvAI4Ji5P53bTX-108" value="N4" style="whiteSpace=wrap;html=1;aspect=fixed;fontFamily=Times New Roman;" vertex="1" parent="1">
          <mxGeometry x="579.5" y="540" width="30" height="30" as="geometry" />
        </mxCell>
        <mxCell id="FZN5IPEvAI4Ji5P53bTX-109" value="N7" style="whiteSpace=wrap;html=1;aspect=fixed;fontFamily=Times New Roman;" vertex="1" parent="1">
          <mxGeometry x="607.5" y="550" width="30" height="30" as="geometry" />
        </mxCell>
        <mxCell id="FZN5IPEvAI4Ji5P53bTX-110" value="variable neighborhood search" style="text;html=1;align=center;verticalAlign=middle;resizable=0;points=[];autosize=1;strokeColor=none;fillColor=none;fontFamily=Times New Roman;" vertex="1" parent="1">
          <mxGeometry x="510" y="580" width="170" height="30" as="geometry" />
        </mxCell>
        <mxCell id="FZN5IPEvAI4Ji5P53bTX-111" value="" style="shape=flexArrow;endArrow=classic;html=1;rounded=0;fontFamily=Times New Roman;" edge="1" parent="1">
          <mxGeometry width="50" height="50" relative="1" as="geometry">
            <mxPoint x="582.76" y="452" as="sourcePoint" />
            <mxPoint x="583" y="520" as="targetPoint" />
          </mxGeometry>
        </mxCell>
        <mxCell id="FZN5IPEvAI4Ji5P53bTX-112" value="Select top-3" style="text;html=1;align=center;verticalAlign=middle;resizable=0;points=[];autosize=1;strokeColor=none;fillColor=none;fontFamily=Times New Roman;" vertex="1" parent="1">
          <mxGeometry x="502.5" y="470" width="80" height="30" as="geometry" />
        </mxCell>
        <mxCell id="FZN5IPEvAI4Ji5P53bTX-114" value="FeatureExtractor" style="text;html=1;align=center;verticalAlign=middle;resizable=0;points=[];autosize=1;strokeColor=none;fillColor=none;fontFamily=Times New Roman;" vertex="1" parent="1">
          <mxGeometry x="170" y="425" width="100" height="30" as="geometry" />
        </mxCell>
        <mxCell id="FZN5IPEvAI4Ji5P53bTX-115" value="" style="shape=flexArrow;endArrow=classic;html=1;rounded=0;fontFamily=Times New Roman;" edge="1" parent="1">
          <mxGeometry width="50" height="50" relative="1" as="geometry">
            <mxPoint x="325" y="558.76" as="sourcePoint" />
            <mxPoint x="270" y="559" as="targetPoint" />
          </mxGeometry>
        </mxCell>
        <mxCell id="FZN5IPEvAI4Ji5P53bTX-116" value="" style="shape=flexArrow;endArrow=classic;html=1;rounded=0;fontFamily=Times New Roman;" edge="1" parent="1">
          <mxGeometry width="50" height="50" relative="1" as="geometry">
            <mxPoint x="250" y="510" as="sourcePoint" />
            <mxPoint x="340" y="440" as="targetPoint" />
          </mxGeometry>
        </mxCell>
        <mxCell id="FZN5IPEvAI4Ji5P53bTX-118" value="" style="shape=flexArrow;endArrow=classic;html=1;rounded=0;entryX=0.438;entryY=1.067;entryDx=0;entryDy=0;entryPerimeter=0;fontFamily=Times New Roman;" edge="1" parent="1">
          <mxGeometry width="50" height="50" relative="1" as="geometry">
            <mxPoint x="385" y="520" as="sourcePoint" />
            <mxPoint x="384.65999999999997" y="457.00999999999976" as="targetPoint" />
          </mxGeometry>
        </mxCell>
        <mxCell id="FZN5IPEvAI4Ji5P53bTX-119" value="&lt;span style=&quot;text-wrap-mode: wrap;&quot;&gt;Training&lt;/span&gt;" style="text;html=1;align=center;verticalAlign=middle;resizable=0;points=[];autosize=1;strokeColor=none;fillColor=none;fontFamily=Times New Roman;" vertex="1" parent="1">
          <mxGeometry x="390" y="480" width="60" height="30" as="geometry" />
        </mxCell>
        <mxCell id="FZN5IPEvAI4Ji5P53bTX-121" value="&lt;span style=&quot;&quot;&gt;N1&lt;/span&gt;" style="whiteSpace=wrap;html=1;aspect=fixed;fontFamily=Times New Roman;" vertex="1" parent="1">
          <mxGeometry x="538" y="337.5" width="30" height="30" as="geometry" />
        </mxCell>
        <mxCell id="FZN5IPEvAI4Ji5P53bTX-122" value="&lt;span style=&quot;&quot;&gt;N3&lt;/span&gt;" style="whiteSpace=wrap;html=1;aspect=fixed;fontFamily=Times New Roman;" vertex="1" parent="1">
          <mxGeometry x="598" y="337.5" width="30" height="30" as="geometry" />
        </mxCell>
        <mxCell id="FZN5IPEvAI4Ji5P53bTX-123" value="&lt;span style=&quot;&quot;&gt;N2&lt;/span&gt;" style="whiteSpace=wrap;html=1;aspect=fixed;fontFamily=Times New Roman;" vertex="1" parent="1">
          <mxGeometry x="568" y="337.5" width="30" height="30" as="geometry" />
        </mxCell>
        <mxCell id="FZN5IPEvAI4Ji5P53bTX-125" value="&lt;span style=&quot;&quot;&gt;N4&lt;/span&gt;" style="whiteSpace=wrap;html=1;aspect=fixed;fontFamily=Times New Roman;" vertex="1" parent="1">
          <mxGeometry x="538" y="367.5" width="30" height="30" as="geometry" />
        </mxCell>
        <mxCell id="FZN5IPEvAI4Ji5P53bTX-126" value="&lt;span style=&quot;&quot;&gt;N5&lt;/span&gt;" style="whiteSpace=wrap;html=1;aspect=fixed;fontFamily=Times New Roman;" vertex="1" parent="1">
          <mxGeometry x="568" y="367.5" width="30" height="30" as="geometry" />
        </mxCell>
        <mxCell id="FZN5IPEvAI4Ji5P53bTX-127" value="&lt;span style=&quot;&quot;&gt;N6&lt;/span&gt;" style="whiteSpace=wrap;html=1;aspect=fixed;fontFamily=Times New Roman;" vertex="1" parent="1">
          <mxGeometry x="598" y="367.5" width="30" height="30" as="geometry" />
        </mxCell>
        <mxCell id="FZN5IPEvAI4Ji5P53bTX-128" value="&lt;span style=&quot;&quot;&gt;N7&lt;/span&gt;" style="whiteSpace=wrap;html=1;aspect=fixed;fontFamily=Times New Roman;" vertex="1" parent="1">
          <mxGeometry x="538" y="397.5" width="30" height="30" as="geometry" />
        </mxCell>
        <mxCell id="FZN5IPEvAI4Ji5P53bTX-129" value="&lt;span style=&quot;&quot;&gt;N9&lt;/span&gt;" style="whiteSpace=wrap;html=1;aspect=fixed;fontFamily=Times New Roman;" vertex="1" parent="1">
          <mxGeometry x="598" y="397.5" width="30" height="30" as="geometry" />
        </mxCell>
        <mxCell id="FZN5IPEvAI4Ji5P53bTX-130" value="&lt;span style=&quot;&quot;&gt;N7&lt;/span&gt;" style="whiteSpace=wrap;html=1;aspect=fixed;fontFamily=Times New Roman;" vertex="1" parent="1">
          <mxGeometry x="568" y="397.5" width="30" height="30" as="geometry" />
        </mxCell>
        <mxCell id="FZN5IPEvAI4Ji5P53bTX-131" value="" style="shape=image;verticalLabelPosition=bottom;labelBackgroundColor=default;verticalAlign=top;aspect=fixed;imageAspect=0;image=data:image/png,iVBORw0KGgoAAAANSUhEUgAAAPcAAABgCAYAAADB7+SoAAAAAXNSR0IArs4c6QAAAARnQU1BAACxjwv8YQUAAAAJcEhZcwAADsMAAA7DAcdvqGQAABSYSURBVHhe7d1/dNPV/cfxZxocBRUKThq+/GjRjpZNafji1jInpP5q+U5H8Mgom7bhzH6pbtpyZKPVTYsepIjYoig4RMqm0KqzBZmUqaMd2wjOSaoeSDu/NvyyKYhEFBqgyfv7R/nV29A2/WVT7uOcnJNz701Ofr1yP5/PvZ/7MYiIoGlanxOmFmia1jfocGtaH6XDrWl9lA63pvVROtya1kfpcGtaH6XDrWl9lA63pvVROtztJF43H5SXsc3pVas0rVfS4W6Hz3cUMsU0nOum2li926NWa1qvZNDTT1u3r2Q616SW8TVRzP2rg6eSItQmmtYr6XC34tCWWcSkFPMVg8l4y8ULU3WwtdChN8svoLF6GTenFHMUiM8o18HWQo7uuQMQ3KxOGklGhY+BTOPlhjKmh6utNK130z13AI2VC/hVhQ+AqzKydbC1kKTDHUBF8cucAKA/U2db1GpNCwk63Ao/Dv5SdhyAcCxMmqC20LTQoMOtkBNOqtxNhyEuv8JMjN4k10KUDrdC3PXsoSnc/YeYGKw20LQQocOtaX2UDrfWLoKb12dPICrexgPWMVyfVcGXaqN22r8ll3tXONTioPnqy0gzW7BlW0maVsR/1AYXOR3uLiZ42DTrCpILXGrVWcdcZaRbLPyqsJh1hZkkWVJ5aXvvmLPu9XhQT40RPLwyfRT3vZPMm1X5jK3fx3vPZFNcqzRsBz8VLLAuZvV9mRS51dr282MnM+4OPHOKeXjCCXZtnM3yzWqrniV4+Puy6dw8LYeVZSv5jdXC9KwyDqoNe4pozZxyFcpYEEBGxhTIHrXBBTXI4d2lclesQQBJerpWbSAiIkfLbWIiVgp3nSs75cyXsQyW+99qOL9pj/sw5yoB5Orb18v5r+TMZ2J5YreIiByr3Sobt9Y2a9Nee1dOEk5/vtdkbFWr221vkUWMxMrztXWyymKUbzFF1tWprXqOX2rl2USjxM0oFc/ZsiPyWuqlMvLaYH5HXUeHW9GRcDfWbZaF6enyYMF6ebvQesFw+2W3zIsOk6tvaR4ekQb5Y0o/uXLkfKlpVt6z9hZZBJCJ929vVn6yPPWC7ykYPtkqGYOmyTr7fBkNcgkJsqYDgfRLU6CHhM2Rf6mV35CjxVYxECmPfdC8/JQjR4aB2NZ15K+wc/RmeRcwmlJ4qKiIp7JTmRJ34bEzX/VaXnX5GT01keatwklI+Q6f7y+ieGezih41Kn0rIsL7zySqVV3iwNoF1MzJZ1ZCHgut/TjFDpY9YlebtUlwUFnpZ+hNFq5RK1vh99opzC7kHZe649FZXjYUb+JSLPxQmRcRFj+FKQYD29aUtdjd6W463D2ozm5nLxAbHa1WER0dj1CPw9GJHdFezI+dx38zmKzH4oBwUvPnMRrYtSqH9UG+ZX91Fe+JMCrJrPxJti4s3MwMazi/TxnClfE2XnF0zXEOPw4qy30MijEzWqkzEM34WANfvFvBx0pdd9Ph7kFuZ03TnUC/yNNlX7i75gcXDMHNpsVTiTeZiIwwcOPpg4F+HKy22fjFou0AOIqysdls3JNexEfKc7TlwNpcatLzz87T7xf7KAut/ThJJU+2s/durCrCZrNxx8w8aoADlfnYbDYyV9jb2SuGM8KSyavOBlwlVuyZ4xgSaeXRzc52Pj4wOeFijxfCCKe/Wkk44Rg45ff0/IE1dTv9YteRfe7ztbZ/ujH1EgEk8y215tzjYmdsVqt6zMGilICvvbX31B4+2S4ZkcnypyPNy085c2Q0BH0w7G+Zl0s/4mXlp2pN8I7VbZXlqXEy8FvxkvnSTnF3YNf4zG8m0O/FL7WyJM4oRmK75PUGQ/fcCjm0m8On7x87eu7+xSDC1D3nrB9Ym4szLZ87lKc3xs5nYUpwvbfgptp5nIGYiRmj1gZvoMnCL9fv5qv6Iq778F7iI0ykzi+npjNdeS+hw60wXDmOK07fv3TQuftax/hx8Oyi/mQ/ZFarMBBxdt/buSqPN9qxRyK42GH3M+haM99RKzshLMLMLwq2U+exc1fYC9wQEc716UV86A7dlOtw9yBT9JVqUQuDok1qUUg7XJLLXyfntei1zzDGN/XeXrbw1BNtz1qTeifVXmFoYmKLg1ddwRAezW2LSqnzOJh98CHMw038rumQwwUZTJFEYVCLm7mEaIYNV0u7lw53D4owRQJw1NOyN/B6miZzjhrXd8Ltx8GTjzbw4GMXHlo7v/feuSSnzd7b76hkGxAzqeWIQ1cQr4tNudMZHmHmpUGPUFnn5vFJaqvmDP0jiDTAiSPuFlNyBQ/1HmFAWDSjAh1I7UY63D1ojCWZYcBnrpZTU10uFwYiMZv7TrgPl+SydXI+s9p4S8b4LH5nMbar93Y5q4D+XB3XxpMGye9xsHruJIZHJPL88XS2ebz8sySTG0xtJzIMC8nJRhoOu9in1Aku9tRL0GPyXUGHuwcZ49NJiw5j31ZHs6EXwc2O8hq+PdJGqjIJItBc71AgONvstc8wYCI9P4NBQNWSPEpbecPVjo+7dBGN4+4Knps1jssjbbw/fgVVHjdvLbMytu1MnyecabbbOEYF/1YmIfl3bGGjCDfMtgYcAe1OOtw9yEAcj6xM4/DbOSw570fgq1rG4xWXkfr7vGYHifatTWLAkCGMm1zU82OknfR1SS7LjnjZkmPDZmv7ds+KOkzAcTaw9BGn+nRwuhd02v1dsojGMWcZ9ycOZ0R8IQfTSjl8wsGK2WYiO/i8l80s4Enz56ydX3x201zwUJL3IldeW8CCWR184s5Qx8Yudh0Z5/bJTnkxPV3S0pNlfP+mxxqIlKSZ6TI7bZG8o4zhfm5fIT9NmCL3FKyXlwvSZVLCTFn9T2UQ+PRJJoM6MA4crDOv/5aoppNeLhmWID9PWyMOpdxIrExNT5fMl3aqT9HMmTn0nP4cg70NZJq8EWC8uVFKZYbB0Km5AJ/bV8iM+AgZPj5dXt5Z16GTXy7EL3XyWrZFbrx1vqwoXSH3JyfI1AdKpV5t2EN0uBUdCXd3ezPV3OMTIHqjprPnkJ918CQMX8N2KcgqkLd3d+zxoUZvlvdyfhxs+yCBiV0wYSPU1dnL2c807uzgWtNh4YlkF2Zzcysn9/QlOty93LEti6nJzOE6teIisW3uCMIMEfx2u5fKsr9z/dPn5qdrrdPhVnnPHartP8bEsGaVPcv3ZRlZzyfw5NzuGdPt/bwMiP4BY8Za+GqtlXcnb+O1uXFqI+0C9OWEFKe2zOJbKcUAjM/YTtXv2x7K0bTeSPfcCqej6uz9H07XwdZClw73eQQ3lWVN51xfxkzunKq20LTQocN9Hl/1MpbYmy4AGP/rPG5SG2haCOm2cPs85WSl2vhJnImM9W78HjtLU638srCQOSlW1u1WH/FN87I5bzl7gcGXpbPgMX3gRgtx6sB312iQP1otsqZOpKZwnPQjXhISEmTFLpGT9mwZBhJ3d8dnGXWHk/ZMGQRi6AVLDGtaV+iWntt3oozXjs0h1QRu534acRI/v5zMceD1eBk6bApZuSnqw5pprFpMvMmEKcjbcJOZZUGuIOrzlPPzlBf4isHcvc7JM1P1QKrWB6hp7wonK7Il7aW6pvWjzEa58or58qHaqJdodK+X2yMMEkaUPPhWy/ndmhaqunWc23eimKnhP2Pf3W+x+w+t99TfBMHF0gkxPOz4ES/UVWDr2lOENe0b1S2b5Wf4KzbwNsJ/T7WoVb2CgWhshRmYqORX8VbeCHL9bE3rzbq159527yBuXHkVyz91MCfIEx8aqxYzMbmAerWiDQZM5Gx2kBXEyfxfVy/m+rgcdhHPU7vsZI3T+9xa6Ou2cAsulo6L4clD83j383yuVRv0ModKpjIstZx+xPPsLgeZ49QWmhZaum2z3F9fwUanj+F3WHt9sAG+PXMNqyxGGqli4cxCfa1nLeR1X7jdVdQQyZTpLder7o0MmEjPy6A/sP+jueSs0TvgWmjrts3yUOTHwfzhE3nK7eeKS7Mo/7rwoj2PWgt93dZzh6IwzPzEeikAh4+t5NU2FqPXtN5Mh1uRmPLj0/dOUFHa+hramtab6XArDHFmxp6+7wlw8QBNCxU63Krwc2PcDTtd7G1WqWmhQ4db0/ooHW5N66N0uDWtj9Lh1tpFcPP67AlExdt4wDqG67MqWlyutr32b8nl3hWdH4nw1ZeRZrZgy7aSNK1IzypU6HB3EfG6eH12ErfOKWR9cSH/a7Ewe4W9wwH4pgS6qqjg4ZXpo7jvnWTerMpnbP0+3nsmm+JapWE7+KlggXUxq+/LpKgTkwD92MmMuwPPnGIennCCXRtns3yz2qrnfb6jEKvFym9XlvFcjpWbkrP5cyfeZ6co53df9DpyrTCfd7PcZTKI5YndZ8v8slsejwuTa+7e3KUXm+tOH+ZcJYBcffv6Zq/5zGdy5v0dq90qG7fWduh97V056ewF/67J2KpWt9veIosYiZXna+tklcXYDRdLbJCPyrLl+5HIxPu3q5UB1aycJJf1myl/Pm/Nj4NlqTKQ+G/kWm863IqOhPvDnKsknOQWV6Y8WjxVwoiSx3c1L++t9hZZBFr+mE+WpwogSU/XNisPlk+2SsagabLOPl9Gg1xCgqzpQCD90hToIWFz5F9qZSf5G+rknZWpMr4/MuYHWfLm7iPt+hNr9K6X2w0G+f6vm18B1Sc7ZZ4prMUfZk/Qm+WdJDj5Q7GLb8ekMFE5DXxAYjIx7GHjms7vX/aEUelbERHef6Z7LsZwYO0CaubkMyshj4XWfpxiB8sesavN2iQ4qKz0M/QmC9eolR0kXhebcqdjGjCcOW9FsdTRwKc7CrktLoL2nN1/vKyEN0WYmNT8RKkwzEy2GDnwZhGb1f2dbqbD3Un+ejs7XH4GTIhmtFJniIoi3mDgkN3BQaXuYuPHzuO/GUzWY3FAOKn58xgN7FqVw/og90n91VW8J8KoJHO7gtcav9fJ63MnYRowhrxPk3m9roFPNuQHfSVQR8W7GIklLsBl3aLNMXipYHuQC3d2lg63Qg79H/7wcMLDw/Eb6/lKbaAQdzXVQFiAn5nhdNnJOnevPrAmuNm0eCrxJhOREQZuLGiaduvHwWqbjV8sajqDxlGUjc1m4570Ij5SnqMtB9bmUpN+7gqd/WIfZaG1Hyep5Ml29t6NVUXYbDbumJlHDXCgMh+bzUbmCnuLg4Bt8XscvDh7AgMHmCn4Yg5v1zXwfkkmN5hafo9t87LH1QDNJzie1VR2gq+C/BPrNHU7/WIX7D73mf3R2Bkt12H3yWaZYTDIZcyUd9TKXuhgUUrAfevO7nP7ZLtkRCbLn5TFZU85c2Q0BH0w7G+Zl0u/Dh6k+rp2s8ybZhIDkXLTA6VSfaTze8J+qZUlcUYxEhvwNdUUjuvU59dRuufWzoowRahFXeLA2lycafncoTy9MXY+C1OC670FN9XO4wzETEyQ6/L5vixm1lX/w/IN8ayudfHOMitjIwJ0tX2EDrfWrfw4eHZRf7Ifarkij4GIs/vezlV5vOFRW7QkuNhh9zPoWjPfUSvbYBycyobjn7Fp5RDyxwxgVEI2m5zBbtCHDh3uTjKYohmmFioGXNF2m77qcEkuf52c16LXPsMY39R7e9nCU0+0Paog9U6qvcLQxMQWBzDbwxBu4qY563HKEUrv+5KHzQOIiLXxiqMd/ywXYMCEKdqgFrcw3NSzC+PrcHdWhAkT0BhoZtcJDx6BS78bR6RSdzHw4+DJRxt48LELD62d33vvXJLTZu/td1SyDYiZFOCwdBAMRHBd+hqqvA28/8xwSlKGclmUldVb3S2+x7aFE2Ey4MfDwQCv3+P+EujPiOie3QXQ4e6ksKgp3GoKo6HWxT6lTlx72INwZaL5ouy5D5fksnVyPrPa6LCM8Vn8zmJsV+/tclYB/bk6ro0nbbdwYpIXsdF9nOq1KWy5978YGplC3mZXUCGfknIzQj2fBVjfY4/rIOFYmBTEWvpdQYe7k8Iwk2aL5otPKvhY+TXU2cv5hCh+Mrv5/mag+dt9jeBss9c+w4CJ9PwMBgFVS/IobeXDqXZ83E1BCWeEJZNXnX4OVWZyeMEkBg1OJKfU2a7vaqA1jdsNBv69vfmfkx87W8p8jLjdRk9fX1KHuwt8L+857oz4C0seOffF+nHwTN7f+O7dK5l33gUO9q1NYsCQIYybXNSnJ7Z8XZLLsiNetuTYsNnavt2zog4TcJwNLH3EqT4dnD6Y5rT7ufwKMzHdGJRL46w8a6/jSFUevrXTuWV+20fyjf1TWVpg5iNl1+JwyQKKvOP59bLUADMhupk6NnaxC3ac+wzfke2yfGai3JJWIOvWF8jdCQlie367eJR2R8ttMqgDY7vdySc75cX0dLklyiCAXDIsQX6etkYcSrmRWJmani6ZLzWfP63yy26ZFx129gSRYG8DmdZinr6ISKOUygyDIeCcgt5iX1m2TJmSLA+vKJXlWcly/eQs2fQNfc963XJF455lfC86mxpgZEwB//hPdoeOyrZl06wJHHhiZ9DXULuYNVYv5ntxOVy3roFXZvV4Pxhy9GZ5AN39s/HjYNsHCUzUwQ5Knb2c/UzjzjNzWLVW6XArwqJiGW9oGrM8+omjW1b3OLZlMTWZOfpqJu2wbe4IwgwR/Ha7l8qyv3P90+fmpwfL92UxPzWZMAV5u3lR60fweyu9Wa4Q3KxOGklGhQ8jsTz3qbNLN519X5aRkeYid0N20DOsLj5e3l82i5nPC7cleTkam0fh3EQGq820gHS4A9i3NonRtgoAbn++jo33dtWYqqb1HL1ZHsCI1PnMCG/aNLc/oS/nq4UmHe4AwvqnsHTlFAAO7S9kaU8voaFpXUCH+wJGppfyZupQ4ATrfmrj3QBzhjWtN9PhvgADEfx4/T9YYjby1dclpE3Op0Z34FoI0eFuhYE4Hty5nz9ah/PZR7kkjs3UPbgWMnS422DAxF2ln3HIXsCPBpaxan2A0340rRfSQ2Ga1kfpnlvT+igdbk3ro3S4Na2P0uHWtD5Kh1vT+qj/B7NmMFDrFLXYAAAAAElFTkSuQmCC;" vertex="1" parent="1">
          <mxGeometry x="334.28" y="535" width="123.5" height="48" as="geometry" />
        </mxCell>
        <mxCell id="FZN5IPEvAI4Ji5P53bTX-133" value="&lt;span style=&quot;font-family: &amp;quot;Times New Roman&amp;quot;; text-wrap-mode: nowrap;&quot;&gt;Fitness&lt;/span&gt;" style="rounded=0;whiteSpace=wrap;html=1;" vertex="1" parent="1">
          <mxGeometry x="185" y="347.5" width="70" height="20" as="geometry" />
        </mxCell>
        <mxCell id="FZN5IPEvAI4Ji5P53bTX-135" value="&lt;span style=&quot;font-family: &amp;quot;Times New Roman&amp;quot;; text-wrap-mode: nowrap;&quot;&gt;Avg_fitness&lt;/span&gt;" style="rounded=0;whiteSpace=wrap;html=1;" vertex="1" parent="1">
          <mxGeometry x="185" y="367.5" width="70" height="20" as="geometry" />
        </mxCell>
        <mxCell id="FZN5IPEvAI4Ji5P53bTX-136" value="&lt;span style=&quot;font-family: &amp;quot;Times New Roman&amp;quot;; text-wrap-mode: nowrap;&quot;&gt;Diversity&lt;/span&gt;" style="rounded=0;whiteSpace=wrap;html=1;" vertex="1" parent="1">
          <mxGeometry x="185" y="407.5" width="70" height="20" as="geometry" />
        </mxCell>
        <mxCell id="FZN5IPEvAI4Ji5P53bTX-137" value="&lt;span style=&quot;font-family: &amp;quot;Times New Roman&amp;quot;; text-wrap-mode: nowrap;&quot;&gt;Generation&lt;/span&gt;" style="rounded=0;whiteSpace=wrap;html=1;" vertex="1" parent="1">
          <mxGeometry x="185" y="387.5" width="70" height="20" as="geometry" />
        </mxCell>
        <mxCell id="FZN5IPEvAI4Ji5P53bTX-138" value="" style="shape=image;verticalLabelPosition=bottom;labelBackgroundColor=default;verticalAlign=top;aspect=fixed;imageAspect=0;image=data:image/png,iVBORw0KGgoAAAANSUhEUgAAAMgAAADICAYAAACtWK6eAAAAAXNSR0IArs4c6QAADPVJREFUeF7tnW1u47YWQC3Y+2hnJZP5HwGzgzQrmZmVvGQHAyj/m66k6T4cqKGfXCgZy7738lIkzROgQIGh+HEuj0iKstht+IMABBYJdLCBAASWCSAIvQMCZwggCN0DAghCH4CAjQAjiI0bVzVCAEEaCTTNtBFAEBs3rmqEAII0EmiaaSOAIDZuXNUIAQRpJNA000YAQWzcuKoRAgjSSKBppo0Agti4cVUjBBCkkUDTTBsBBLFx46pGCCBII4GmmTYCCGLjxlWNEECQRgJNM20EEMTGjasaIYAgjQSaZtoIIIiNG1c1QgBBGgk0zbQRQBAbN65qhACCNBJommkjgCA2bkmuur29vdntdi8/f/58SVIAmaoJIIgamf8Ft7e337qu+z7LOQjyvN1ufyCLP29NjgiioZUgbd/3f77JcLOQ9ct2u/2CJAnAC7NEECGoFMlOjByninkYhuE+RfnkeZkAglxmlCxF3/d/bzab3y8U8DIMw6dklSDjswQQJGMH6ft+lBQ/juOXp6enZ0la0vgSQBBfnuLcwhOrruvC+uPiH4JcRJQsAYIkQ3s+YwTJBF5ZLIIogXklRxAvkmnzQZC0fBdzR5BM4JXFIogSmFdyBPEimTYfBEnLlxEkE1+vYhHEi6QyH0YQJbBMyREkE3gEyQReWSyCKIF5JUcQL5Jp80GQtHxZg2Ti61UsgniRVObDCKIElik5gmQCjyCZwCuLRRAlMK/kCOJFMm0+CJKWL2uQTHy9ikUQL5LKfBhBlMAyJUeQTOARJBN4ZbEIogTmlRxBvEimzQdB0vJlDZKJr1exCOJFUpkPI4gSWKbkCJIJPIJkAq8sFkGUwLySI4gXybT5IEhavqxBMvH1KhZBvEgq82EEUQLLlBxBMoFHkEzglcUiiBKYV3IE8SKZNh8EScuXNUgmvl7FFiHI169ff399fb0Zx/G30LCu68L3asN/4RiAv4ZhePBqcCn5tD6ChJjv9/u7ruuOX7Y/nonyV4jROI4vJXxuNZsgM0DzczGW+m+A9+OaRGlZEEXbD+ek5LxJriqIUoqPslzVWRmKThLuplfz8eppthC+aq/9y3Ko0CqCRIoxB/k8DMMXLdkS07cqSN/3/3ubOv8REZOXcRwfdrvd4xoHCyUXRHhIjJTX1ZyV0bAgoiMfBB3iIMrT09MPQVpzkqSCXDhezFTpYRiS1tlUKcNFLQoSMb06RzjpTTNJZ5tAhKF06ew9Q5f6/yUIYkZXxIXSQ4OUlU22PnUXJNFd4sjras7ra3EECUFMMauYOkeSJ52ugiSWI+lQqrxjRSdvVZDUfWQcx3vP/RNXQVLeHbwbHt3DIzNoVZCAbZIkHD936QBTC2XX6ZabII5yHHdUw1OK567r/rmmDcJjxFsWZCZJWKN+nonitWZ1m224COL1bDv1IzvL7SjVNa0LssT1+NrRZrO5i3zI47JejRZEE+gTUJ632+39Ghs+qTq6NV8Nt2vaSdfwit1g9uAWLYhxahWmT66LKQ34EtIiiDwKEWuW6KlWlCCaIM9wXM3rIvIQ/5pSw87jThhT1xKujRhN7mPWsFGCGEYP5Jh6G4LotTNKEjWKmAXp+z68cBZ2y6V/yDEjhSDSbvM+nfEtDfMoEiOI6q3M7Xb7qcXF+FI3QBCbIMZ9FPPNOUaQ8E6/dKPHbLAdY9lXIkhcfJQzGPM0yyTIWpWLQ1j21QgSFx/tVMv6oMMqiGZ6xehxoi8gSJwg4WoNw/DTXcuP7ayChPdoRK8FsPY43RE0wbXe/eK7YNk5KF98NE2zrIJI1x8u2/1lh8lWOwSxcft4lWKrYVVBRD+bHMfxe0vvV2lCjiAaWstpNT/ptvzYzjqCiATZbDasPxZiiyBugtx0XRem/Bf/LFNVtSDKeR+CIMjFjhuTIPWNRi1I6grFwKrpWjj6RCv1DRtBfOKkzgVB1MhOXoAgPhyLywVBfEKCID4ci8sFQXxCgiA+HIvLBUF8QoIgPhyLywVBfEKCID4ci8sFQXxCgiA+HIvLBUF8QoIgPhyLywVBfEKCID4ci8sFQXxCgiA+HIvLBUF8QoIgPhyLywVBfEKCIA4cZ5+LmR/9Fb7q+CPXhyRqEuTD53YO305e43QnSegRRELpTJoLHfFwMOQ4jo+en8yXVLkGQaY6hp9XL32cw/QjJAkfaRoEkZJaSKc40ehhTVFKFmT6EVIYbSVfrcn6q1EEiRBE+fWVY0mrfDe4REGUYvwXGcsPkSLC+u5SBIkg2fe99Lfzp0pJcqTXsaCSBNH8bHUhHNl+GIcgcYKIv75yppgkouQWxPid2yVMCFLine+SO4ovXlzKKvy767ncuQRxFuPALeennRhBJF13IY2mEyqKcRFFUzePOX4KMSZmWZ9kIYii555K6jC/XqpBlChrCZJQjAMXD3ljQowgMfSmE1X3+/1d13XfI7M6K8put3vUbDqmFmTqON/epobzzVFPBKs87btUYQS5REj476nvpMc1ilSUVIKsJMZDKR8ERBChANJka4gSducvvcbiLcjUUcKut+ibyVJes3RRU0pDeaJLEESESZ9oLVGWdue9BBG8DqKH8/6KIsU4VhFBYsN74foPLzJKXq2w1OiX11hiBbHueisqn2T/R1G+KCmCiDDFJ1pJlP8WtlZBEON9rBEkvu+rcpiAh3l8eAKUakQ5vEUsfcIUHqVuNpvPCZ/EBUZFPJVSBWt6Svn6+hpeKZL8qXf8+fToAtaZKHcJF76SoKZOEx4o3GseUaeukCZ/RhANrURpp7eCr0qUcHaL9JF0Iqwu2SKIC0afTFZ4lOpT0TO5XIsYPMVK3lXsBaywGWev3Okri35UG9NYRpAYeomvXWEvJbYFVysGI0hs11jx+gJFuXoxEGTFDu5VVAGiNCMGgnj12gz5ZBClOTEQJEPH9i5yhd35Kl4H8eY6z49Fekq6K+WdYHe+eTEYQVbqvGsW47A7X+XrICkZM4KkpJsxb+XufNWvg6TEjCAp6RaQ97nd+Wvb9U6BG0FSUC0wz9n0K3wI4WXtbwUXiERUJQQRYSJRqwQQpNXI024RAQQRYSJRqwQQpNXI024RAQQRYSJRqwQQpNXI024RAQQRYSJRqwQQpNXI024RAQQRYSJRqwQQpNXI024RAQQRYSJRqwQQpNXI024RAQQRYSJRqwQQpNXI024RAQQRYSJRqwQQpNXI024RAQQRYSJRqwQQpNXI024RAQQRYSJRqwQQpNXI024RgeIESV0hERUSQWAiYD3rUQpQfQSbRpDw2ZpSDpyXAiFdXQSm74uF8+Ev/m2320/ao+bUgoRa9H0/XqzN2ymYCCKhRJoYAhpBhmFQ93f1BZMg4VRRyQmwL8MwfIoBwLUQOEeg7/s/pYesrimIuFLhCGM+gkYnT0VAOpsJx24PwxCO01b9mUaQ6TD775KSmGZJKJHGQkAzvXqb8TwMw3CvLcckiGahHg6o3263X7SLI21DSN8egb7vpVP9sB42zWRMgkzrEPE0y2pveyGnxVICytFjY1l/hLqYBdFMs8IoMo7jPWsRafhJd46AcgYTsjJNr6IEMVSSqRb93oWA5slVKNA6vYoSxDDNCpcgiUsXaTOTc2epnCEStdVgnmKFChlGkYMkTLfa7OAxrda8UjIvJ2b0iB5BplEkbPP/oW08j3+1xNpNr1zvzkGZ1x7HTKJGkIhR5Fh+s+d7t9vd5S2fxAg3X8lbG79kbHn36mMm0YJMo0hohOiFsQU84Vjj53EcH3e73Qt7JvJOdE0pw5R9v98HGT53XSfaiD7T/vthGB5i+bgIEioRMQwutSFIw18bBEwjxBk0ptdKTuXnJojxCUMb4aeVaxJwk8NlkT5v+SRJ2GH3viOsCZiy6iXgKoe7ILNF+zfLk61640LNCyAQtd+xVH+3KdbHkWS/3985LLQK4E4VKiDgPnIc25xEkGPmCRbuFcSKKq5JIPV+WlJBmHKt2VWaK2uVNzKSC3IM2/R6clibsIBvri+7NnjVzeXVBJmNJjdhI4hFvGunaSGzVcVYZQ1yLmrTI+Egy530R/ct9ALa+I7AQYrdbveY6+2KVUeQS8KE1wy6rju8akBHaYvAOI6HNye6rvsn/H8pP64rRpC2ugOtrYUAgtQSKeqZhQCCZMFOobUQQJBaIkU9sxBAkCzYKbQWAghSS6SoZxYCCJIFO4XWQgBBaokU9cxCAEGyYKfQWgggSC2Rop5ZCCBIFuwUWgsBBKklUtQzCwEEyYKdQmshgCC1RIp6ZiGAIFmwU2gtBBCklkhRzywEECQLdgqthQCC1BIp6pmFAIJkwU6htRBAkFoiRT2zEECQLNgptBYCCFJLpKhnFgIIkgU7hdZCAEFqiRT1zEIAQbJgp9BaCCBILZGinlkIIEgW7BRaCwEEqSVS1DMLAQTJgp1CayHwL6jYCW4suSZTAAAAAElFTkSuQmCC;" vertex="1" parent="1">
          <mxGeometry x="185" y="520" width="70" height="70" as="geometry" />
        </mxCell>
        <mxCell id="FZN5IPEvAI4Ji5P53bTX-139" value="" style="shape=flexArrow;endArrow=classic;html=1;rounded=0;fontFamily=Times New Roman;" edge="1" parent="1">
          <mxGeometry width="50" height="50" relative="1" as="geometry">
            <mxPoint x="525" y="558.76" as="sourcePoint" />
            <mxPoint x="470" y="559" as="targetPoint" />
          </mxGeometry>
        </mxCell>
      </root>
    </mxGraphModel>
  </diagram>
</mxfile>
